/* XPM */
static char *_digits_32x32[] = {
/* columns rows colors chars-per-pixel */
"32 32 6 1 ",
"  c #8E381D8F15C0",
". c #AAAA23791A1A",
"X c #C71C29621E74",
"o c #E38D2F4C22CD",
"O c #FFFF35352727",
"+ c None",
/* pixels */
"++++++++++++++++++++++++++++++++",
"++++++++++++++++++++++++++++++++",
"++++++++++++++++++XO++++++++++++",
"+++++++++++++++++++O.+++++++++++",
"+++++++++++++++++++O.+++++++++++",
"++++++++++++.++++++O.+++++++++++",
"+++++++OOX...++++++O.++X++++++++",
"+++++++XX+++++++++XOooOOOX++++++",
"+++++++..+++++++..XO++++OO++++++",
"+++++++.o.OO+++++++O++++O ++++++",
"+++++++..++++++++++O+++XOOOOOO++",
"+++++++..+++++....XOOO+XX+++++++",
"+++++++.OOOX++..+++O+++..+++++++",
"+++++++.X++++++++++O+++..+++++++",
"+++++++..+++++++++ OOOOO++++++++",
"+++++++.o...o.++XOOOX+++++++++++",
"+++++XOOo..++++++++O.+++++++++++",
"+.OO+++Xo++++++++++Oo.XX++++++++",
"+++++++.o+++++++OOXOo.++++++++++",
"+++++++o.++.+++++++O.+++++++++++",
"++++++ X+++XO++++++OX++XOOOO++++",
"++++++OX..X+OX++..XOOOO ++OO.+++",
"++++ OOO.+++++....XO.+++++++++++",
"+++.OOX++++++++++++O.+++++++++++",
"+++++++++++++++++++O.+++++++++++",
"+++++++++++++++++++O++++++++++++",
"+++++++++++++++++++O++++++++++++",
"+++++++++++++++++++X++++++++++++",
"+++++++++++++++++++.++++++++++++",
"+++++++++++++++++++.++++++++++++",
"++++++++++++++++++++++++++++++++",
"++++++++++++++++++++++++++++++++"
};
