/* XPM */
static char *_digits_32x32[] = {
/* columns rows colors chars-per-pixel */
"32 32 14 1 ",
"  c #BF0000",
". c #FE0000",
"X c #FF0000",
"o c #BF4C00",
"O c #FE6500",
"+ c #FF6500",
"@ c #FF6600",
"# c #00BF00",
"$ c #00FE00",
"% c #00FF00",
"& c #0000BF",
"* c #0000FE",
"= c #0000FF",
"- c None",
/* pixels */
"--------------------------------",
"--------XX----------**----------",
"--------XX----------***---------",
"-------XX------------**&--------",
"------ XX-------------**--------",
"------XX---------------**-------",
"----- X ---------------**-------",
"-----XX--XX-------*******&------",
"----X.---XX------*********------",
"----.X---XX------**----***------",
"---XXXXXXXXXX---**------**------",
"---XXXXXXXXXX---**------**------",
"---------XX------**----**&------",
"---------XX------***--***-------",
"---------XX-------******--------",
"----------X---------**----------",
"--------------------$$$#--------",
"---------o@-------$$$$$$$-------",
"--------@@@------#$$---#$$------",
"-------o@@@------$$-----$$------",
"---------@@------$$-----#$------",
"---------@@------$$------$$-----",
"---------@@------$$-----#$#-----",
"---------@@------$$$---$$$------",
"---------@@-------$$$$$$$$------",
"---------@@---------#$#-$$------",
"---------@@------------$$#------",
"---------@@-----------#$$-------",
"---------@@----------#$$--------",
"---------@@---------$$$---------",
"-------o@O@@@------$$$----------",
"--------@@@@@-------------------"
};
